<svg width="320" height="217" viewBox="0 0 320 217" fill="none" xmlns="http://www.w3.org/2000/svg">
<path d="M106.146 23.233L119.882 25.4458V20.0184C120.149 19.2391 121.387 17.8266 124.192 18.4111C127.699 19.1417 127.041 21.2604 127.041 22.0641C127.041 22.707 126.774 25.3714 126.676 26.5404L133.763 27.6821V23.0139C133.568 22.1371 133.778 20.4421 136.174 20.6759C139.169 20.9682 140.338 20.749 140.411 22.8677C140.47 24.5627 140.192 27.4218 140.046 28.6395L147.425 29.8815V25.2787C147.523 24.6699 147.937 23.4376 148.813 23.3792C149.69 23.3207 152.004 23.3548 153.051 23.3792C153.44 23.3792 154.22 23.6276 154.22 24.6212L154.22 30.9774L155.724 31.22L161.014 32.0723V27.2513C160.892 26.7156 160.912 25.5709 161.964 25.2787C163.016 24.9865 165.081 24.9621 165.982 24.9865C166.421 24.8891 167.37 24.9134 167.663 25.7901C168.028 26.886 167.882 33.1692 167.882 33.1692L180.74 35.2148L169.781 104.476L95.1873 93.955L96.107 88.0196C90.9099 86.0364 86.9945 84.4445 86.274 83.9458C85.3242 83.2882 84.3014 81.9001 83.9361 81.6809C83.5708 81.4617 87.9544 77.7357 89.2695 75.69C90.5845 73.6443 92.8494 71.0142 93.1416 70.2105C93.4339 69.4069 94.749 66.4845 95.3334 65.5347C95.9179 64.5849 100.228 54.2104 100.302 53.699C100.348 53.3732 101.996 46.9398 103.204 42.218L106.146 23.233Z" fill="#C4C4C4"/>
<path d="M169.781 104.476L180.74 35.2148L175.553 64.9502C174.749 67.6534 172.952 73.7758 172.192 76.6398C171.243 80.2197 169.051 85.1147 167.224 88.4024C165.763 91.0326 161.063 97.0478 158.895 99.7267C158.311 99.3614 156.514 98.2655 154 96.8043C150.913 95.0092 150.225 94.8372 147.705 94.2076L147.571 94.1741C144.941 93.5166 134.128 93.1513 126.165 93.0052C118.201 92.8591 114.986 92.6399 108.557 91.8362C103.414 91.1933 98.134 89.0356 96.137 88.0371L95.1873 93.955L169.781 104.476Z" fill="#605D5A"/>
<path d="M103.662 39.3793L106.146 23.233L180.74 35.2148L178.11 50.3382L103.662 39.3793Z" fill="#7988C3"/>
<path d="M121.103 33.3964C119.822 33.3964 119.67 32.3725 119.755 31.8606L119.882 25.7901V25.4248L126.676 26.5207C126.676 27.569 126.749 29.7251 126.749 29.9591C126.749 30.2517 126.749 31.7143 126.497 32.5188C126.244 33.3233 125.654 33.2501 125.232 33.3964C124.811 33.5427 122.704 33.3964 121.103 33.3964Z" fill="#566DC7"/>
<path d="M134.072 35.5801C132.961 35.5801 132.83 34.5573 132.903 34.0459L133.047 27.9874L133.049 27.6166L138.967 28.7125V32.1463C138.967 32.4386 138.967 33.8998 138.748 34.7034C138.528 35.5071 138.017 35.434 137.652 35.5801C137.286 35.7263 135.46 35.5801 134.072 35.5801Z" fill="#566DC7"/>
<path d="M147.661 37.7719C146.55 37.7719 146.419 36.7491 146.492 36.2377L146.636 30.1792L146.638 29.8084L152.556 30.9043V34.3381C152.556 34.6304 152.556 36.0916 152.337 36.8952C152.118 37.6989 151.606 37.6258 151.241 37.7719C150.875 37.9181 149.049 37.7719 147.661 37.7719Z" fill="#566DC7"/>
<path d="M161.396 39.9637C160.286 39.9637 160.154 38.9409 160.227 38.4295L160.371 32.371L160.373 32.0002L166.291 33.0961V36.5299C166.291 36.8222 166.291 38.2834 166.072 39.087C165.853 39.8907 165.341 39.8176 164.976 39.9637C164.611 40.1099 162.784 39.9637 161.396 39.9637Z" fill="#566DC7"/>
<path d="M85.8357 60.9319L89.1965 56.4753L92.6303 60.9319L89.1965 65.6808L85.8357 60.9319Z" fill="#605E5B"/>
<path d="M74 78.4663L78.1644 72.7676L82.548 78.4663L78.1644 84.0919L74 78.4663Z" fill="#605E5B"/>
<path d="M88.4659 98.9961L91.9727 94.6856L95.4065 98.9961L91.9727 103.307L88.4659 98.9961Z" fill="#605E5B"/>
<path d="M186.001 73.8635L190.238 68.0187L194.549 73.8635L190.238 79.4891L186.001 73.8635Z" fill="#605E5B"/>
<path d="M198.932 56.5483L204.85 48.7309L210.987 56.5483L204.85 64.8772L198.932 56.5483Z" fill="#605E5B"/>
<path d="M189.654 22.2833L191.48 21.8449C191.846 21.8449 192.605 21.8741 192.722 21.991C192.868 22.1371 193.964 22.9408 194.11 23.0869C194.257 23.233 195.06 24.7673 195.133 25.0595C195.206 25.3518 194.841 26.5207 194.768 26.7399C194.695 26.9591 193.453 27.6166 193.307 27.6897C193.161 27.7627 191.48 28.4933 191.48 28.5664C191.48 28.6395 189.873 28.2011 189.654 28.2011C189.478 28.2011 188.753 27.6653 188.412 27.3974C188.241 26.9591 187.9 26.0678 187.9 26.0093V24.5481C187.9 24.3289 188.485 23.3792 188.558 23.233C188.616 23.1161 189.313 22.5511 189.654 22.2833Z" fill="#605E5B"/>
<path d="M198.056 30.0276C198.173 30.0276 199.517 29.6379 200.174 29.4431L201.27 30.0276C201.757 30.3198 202.746 30.9335 202.805 31.0504C202.878 31.1966 203.608 32.0733 203.608 32.3655C203.608 32.6578 203.316 34.9226 203.316 35.2149C203.316 35.5071 201.855 37.2605 201.636 37.4797C201.416 37.6989 199.005 37.7719 198.932 37.7719C198.874 37.7719 197.349 36.9926 196.594 36.603L195.572 34.6304L195.718 32.0733C196.448 31.3914 197.939 30.0276 198.056 30.0276Z" fill="#605E5B"/>
<path d="M210.037 29.5892L211.499 29.297L212.156 29.1509L213.69 29.4431L215.006 30.466C215.176 30.9774 215.517 32.0294 215.517 32.1463V33.7537C215.517 34.0459 215.152 35.2149 215.006 35.434C214.889 35.6094 214.275 36.0429 213.983 36.2377C213.228 36.3351 211.674 36.5299 211.499 36.5299C211.323 36.5299 210.451 35.9454 210.037 35.6532L208.649 34.9226C208.503 34.1677 208.211 32.5993 208.211 32.3655C208.211 32.1317 208.503 31.1966 208.649 30.7582L210.037 29.5892Z" fill="#605E5B"/>
<path d="M217.563 21.1874L219.754 20.6029H220.339L221.581 20.8221L223.919 21.918C223.943 22.4294 223.977 23.496 223.919 23.6714C223.86 23.8467 223.505 25.7901 223.334 26.7399L220.923 27.8358H219.097L217.563 27.1052L216.101 25.9362L215.736 24.402L216.101 22.6486L217.563 21.1874Z" fill="#605E5B"/>
<path d="M218.001 9.35166L220.266 8.40188L221.654 8.98636C222.263 9.42472 223.539 10.3599 223.773 10.5937C224.065 10.8859 223.992 12.9316 223.992 13.2969C223.992 13.5891 223.115 14.685 222.677 15.1965L220.047 15.7079L218.293 15.1965L216.174 13.2969V11.1782L218.001 9.35166Z" fill="#605E5B"/>
<path d="M208.942 1.4612L210.695 0H211.937L213.179 0.657539C213.617 0.925425 214.509 1.50503 214.567 1.68038C214.64 1.89956 214.859 4.23747 214.859 4.45665C214.859 4.67583 213.91 6.35621 213.764 6.57539C213.647 6.75073 212.643 7.13551 212.156 7.30599L209.818 7.59823L208.065 5.77173L207.7 3.57993L208.942 1.4612Z" fill="#605E5B"/>
<path d="M196.156 2.26486L198.348 0.292239H198.786L200.467 0.657539L202.366 3.57993L201.855 6.21009L199.882 8.10964L197.69 7.89046C197.228 7.47646 196.273 6.63383 196.156 6.57539C196.039 6.51694 195.425 4.99242 195.133 4.23747L196.156 2.26486Z" fill="#605E5B"/>
<path d="M186.512 11.1051L188.558 9.57084L190.178 9.1482L191.992 10.1553L193.745 11.3243L194.622 13.5891L193.38 15.4156L191.992 17.0229L188.558 16.5115L187.097 15.0503L185.928 13.37L186.512 11.1051Z" fill="#605E5B"/>
<path d="M201.709 10.3745L205.069 9.57084C205.41 9.76567 206.195 10.1992 206.604 10.3745C207.013 10.5498 209.502 11.8601 210.695 12.4932L213.033 15.7079C213.082 17.4126 213.15 20.8951 213.033 21.1874C212.916 21.4796 211.961 24.1341 211.499 25.4248L206.092 26.7399L201.855 26.0093L199.005 23.0869L197.252 19.4339V16.5115L198.348 12.9316L201.709 10.3745Z" fill="#605E5B"/>
<path d="M32.824 134.634V140.172H41.612V143.032H32.824V150H29.444V131.8H42.73V134.634H32.824ZM51.5458 150.182C50.1418 150.182 48.8765 149.879 47.7498 149.272C46.6232 148.665 45.7392 147.825 45.0978 146.75C44.4738 145.658 44.1618 144.427 44.1618 143.058C44.1618 141.689 44.4738 140.467 45.0978 139.392C45.7392 138.317 46.6232 137.477 47.7498 136.87C48.8765 136.263 50.1418 135.96 51.5458 135.96C52.9672 135.96 54.2412 136.263 55.3678 136.87C56.4945 137.477 57.3698 138.317 57.9938 139.392C58.6352 140.467 58.9558 141.689 58.9558 143.058C58.9558 144.427 58.6352 145.658 57.9938 146.75C57.3698 147.825 56.4945 148.665 55.3678 149.272C54.2412 149.879 52.9672 150.182 51.5458 150.182ZM51.5458 147.4C52.7418 147.4 53.7298 147.001 54.5098 146.204C55.2898 145.407 55.6798 144.358 55.6798 143.058C55.6798 141.758 55.2898 140.709 54.5098 139.912C53.7298 139.115 52.7418 138.716 51.5458 138.716C50.3498 138.716 49.3618 139.115 48.5818 139.912C47.8192 140.709 47.4378 141.758 47.4378 143.058C47.4378 144.358 47.8192 145.407 48.5818 146.204C49.3618 147.001 50.3498 147.4 51.5458 147.4ZM68.4336 150.182C66.995 150.182 65.7036 149.879 64.5596 149.272C63.4156 148.665 62.523 147.825 61.8816 146.75C61.2403 145.658 60.9196 144.427 60.9196 143.058C60.9196 141.689 61.2403 140.467 61.8816 139.392C62.523 138.317 63.407 137.477 64.5336 136.87C65.6776 136.263 66.9776 135.96 68.4336 135.96C69.803 135.96 70.999 136.237 72.0216 136.792C73.0616 137.347 73.8416 138.144 74.3616 139.184L71.8656 140.64C71.467 139.999 70.9643 139.522 70.3576 139.21C69.7683 138.881 69.1183 138.716 68.4076 138.716C67.1943 138.716 66.189 139.115 65.3916 139.912C64.5943 140.692 64.1956 141.741 64.1956 143.058C64.1956 144.375 64.5856 145.433 65.3656 146.23C66.163 147.01 67.177 147.4 68.4076 147.4C69.1183 147.4 69.7683 147.244 70.3576 146.932C70.9643 146.603 71.467 146.117 71.8656 145.476L74.3616 146.932C73.8243 147.972 73.0356 148.778 71.9956 149.35C70.973 149.905 69.7856 150.182 68.4336 150.182ZM90.6131 136.116V150H87.5191V148.232C86.9991 148.856 86.3491 149.341 85.5691 149.688C84.7891 150.017 83.9484 150.182 83.0471 150.182C81.1924 150.182 79.7277 149.671 78.6531 148.648C77.5957 147.608 77.0671 146.074 77.0671 144.046V136.116H80.3171V143.604C80.3171 144.852 80.5944 145.788 81.1491 146.412C81.7211 147.019 82.5271 147.322 83.5671 147.322C84.7284 147.322 85.6471 146.967 86.3231 146.256C87.0164 145.528 87.3631 144.488 87.3631 143.136V136.116H90.6131ZM99.1583 150.182C98.0317 150.182 96.931 150.035 95.8563 149.74C94.7817 149.445 93.9237 149.073 93.2823 148.622L94.5303 146.152C95.1543 146.568 95.8997 146.906 96.7663 147.166C97.6503 147.409 98.517 147.53 99.3663 147.53C101.308 147.53 102.278 147.019 102.278 145.996C102.278 145.511 102.027 145.173 101.524 144.982C101.039 144.791 100.25 144.609 99.1583 144.436C98.0143 144.263 97.0783 144.063 96.3503 143.838C95.6397 143.613 95.0157 143.223 94.4783 142.668C93.9583 142.096 93.6983 141.307 93.6983 140.302C93.6983 138.985 94.2443 137.936 95.3363 137.156C96.4457 136.359 97.9363 135.96 99.8083 135.96C100.762 135.96 101.715 136.073 102.668 136.298C103.622 136.506 104.402 136.792 105.008 137.156L103.76 139.626C102.582 138.933 101.256 138.586 99.7823 138.586C98.829 138.586 98.101 138.733 97.5983 139.028C97.113 139.305 96.8703 139.678 96.8703 140.146C96.8703 140.666 97.1303 141.039 97.6503 141.264C98.1877 141.472 99.011 141.671 100.12 141.862C101.23 142.035 102.14 142.235 102.85 142.46C103.561 142.685 104.168 143.067 104.67 143.604C105.19 144.141 105.45 144.904 105.45 145.892C105.45 147.192 104.887 148.232 103.76 149.012C102.634 149.792 101.1 150.182 99.1583 150.182ZM121.675 150.182C120.271 150.182 119.005 149.879 117.879 149.272C116.752 148.665 115.868 147.825 115.227 146.75C114.603 145.658 114.291 144.427 114.291 143.058C114.291 141.689 114.603 140.467 115.227 139.392C115.868 138.317 116.752 137.477 117.879 136.87C119.005 136.263 120.271 135.96 121.675 135.96C123.096 135.96 124.37 136.263 125.497 136.87C126.623 137.477 127.499 138.317 128.123 139.392C128.764 140.467 129.085 141.689 129.085 143.058C129.085 144.427 128.764 145.658 128.123 146.75C127.499 147.825 126.623 148.665 125.497 149.272C124.37 149.879 123.096 150.182 121.675 150.182ZM121.675 147.4C122.871 147.4 123.859 147.001 124.639 146.204C125.419 145.407 125.809 144.358 125.809 143.058C125.809 141.758 125.419 140.709 124.639 139.912C123.859 139.115 122.871 138.716 121.675 138.716C120.479 138.716 119.491 139.115 118.711 139.912C117.948 140.709 117.567 141.758 117.567 143.058C117.567 144.358 117.948 145.407 118.711 146.204C119.491 147.001 120.479 147.4 121.675 147.4ZM140.071 135.96C141.821 135.96 143.225 136.471 144.283 137.494C145.34 138.517 145.869 140.033 145.869 142.044V150H142.619V142.46C142.619 141.247 142.333 140.337 141.761 139.73C141.189 139.106 140.374 138.794 139.317 138.794C138.121 138.794 137.176 139.158 136.483 139.886C135.789 140.597 135.443 141.628 135.443 142.98V150H132.193V136.116H135.287V137.91C135.824 137.269 136.5 136.783 137.315 136.454C138.129 136.125 139.048 135.96 140.071 135.96ZM170.177 136.116L163.677 151.118C163.07 152.626 162.334 153.683 161.467 154.29C160.6 154.914 159.552 155.226 158.321 155.226C157.628 155.226 156.943 155.113 156.267 154.888C155.591 154.663 155.036 154.351 154.603 153.952L155.903 151.56C156.215 151.855 156.579 152.089 156.995 152.262C157.428 152.435 157.862 152.522 158.295 152.522C158.867 152.522 159.335 152.375 159.699 152.08C160.08 151.785 160.427 151.291 160.739 150.598L160.973 150.052L154.915 136.116H158.295L162.663 146.386L167.057 136.116H170.177ZM178.067 150.182C176.663 150.182 175.398 149.879 174.271 149.272C173.145 148.665 172.261 147.825 171.619 146.75C170.995 145.658 170.683 144.427 170.683 143.058C170.683 141.689 170.995 140.467 171.619 139.392C172.261 138.317 173.145 137.477 174.271 136.87C175.398 136.263 176.663 135.96 178.067 135.96C179.489 135.96 180.763 136.263 181.889 136.87C183.016 137.477 183.891 138.317 184.515 139.392C185.157 140.467 185.477 141.689 185.477 143.058C185.477 144.427 185.157 145.658 184.515 146.75C183.891 147.825 183.016 148.665 181.889 149.272C180.763 149.879 179.489 150.182 178.067 150.182ZM178.067 147.4C179.263 147.4 180.251 147.001 181.031 146.204C181.811 145.407 182.201 144.358 182.201 143.058C182.201 141.758 181.811 140.709 181.031 139.912C180.251 139.115 179.263 138.716 178.067 138.716C176.871 138.716 175.883 139.115 175.103 139.912C174.341 140.709 173.959 141.758 173.959 143.058C173.959 144.358 174.341 145.407 175.103 146.204C175.883 147.001 176.871 147.4 178.067 147.4ZM202.027 136.116V150H198.933V148.232C198.413 148.856 197.763 149.341 196.983 149.688C196.203 150.017 195.362 150.182 194.461 150.182C192.606 150.182 191.142 149.671 190.067 148.648C189.01 147.608 188.481 146.074 188.481 144.046V136.116H191.731V143.604C191.731 144.852 192.008 145.788 192.563 146.412C193.135 147.019 193.941 147.322 194.981 147.322C196.142 147.322 197.061 146.967 197.737 146.256C198.43 145.528 198.777 144.488 198.777 143.136V136.116H202.027ZM209.376 138.144C210.312 136.688 211.959 135.96 214.316 135.96V139.054C214.039 139.002 213.788 138.976 213.562 138.976C212.297 138.976 211.309 139.349 210.598 140.094C209.888 140.822 209.532 141.879 209.532 143.266V150H206.282V136.116H209.376V138.144ZM237.984 130.708V150H234.864V148.206C234.327 148.865 233.659 149.359 232.862 149.688C232.082 150.017 231.215 150.182 230.262 150.182C228.927 150.182 227.723 149.887 226.648 149.298C225.591 148.709 224.759 147.877 224.152 146.802C223.545 145.71 223.242 144.462 223.242 143.058C223.242 141.654 223.545 140.415 224.152 139.34C224.759 138.265 225.591 137.433 226.648 136.844C227.723 136.255 228.927 135.96 230.262 135.96C231.181 135.96 232.021 136.116 232.784 136.428C233.547 136.74 234.197 137.208 234.734 137.832V130.708H237.984ZM230.652 147.4C231.432 147.4 232.134 147.227 232.758 146.88C233.382 146.516 233.876 146.005 234.24 145.346C234.604 144.687 234.786 143.925 234.786 143.058C234.786 142.191 234.604 141.429 234.24 140.77C233.876 140.111 233.382 139.609 232.758 139.262C232.134 138.898 231.432 138.716 230.652 138.716C229.872 138.716 229.17 138.898 228.546 139.262C227.922 139.609 227.428 140.111 227.064 140.77C226.7 141.429 226.518 142.191 226.518 143.058C226.518 143.925 226.7 144.687 227.064 145.346C227.428 146.005 227.922 146.516 228.546 146.88C229.17 147.227 229.872 147.4 230.652 147.4ZM247.54 135.96C249.585 135.96 251.145 136.454 252.22 137.442C253.312 138.413 253.858 139.886 253.858 141.862V150H250.79V148.31C250.391 148.917 249.819 149.385 249.074 149.714C248.346 150.026 247.462 150.182 246.422 150.182C245.382 150.182 244.472 150.009 243.692 149.662C242.912 149.298 242.305 148.804 241.872 148.18C241.456 147.539 241.248 146.819 241.248 146.022C241.248 144.774 241.707 143.777 242.626 143.032C243.562 142.269 245.026 141.888 247.02 141.888H250.608V141.68C250.608 140.709 250.313 139.964 249.724 139.444C249.152 138.924 248.294 138.664 247.15 138.664C246.37 138.664 245.598 138.785 244.836 139.028C244.09 139.271 243.458 139.609 242.938 140.042L241.664 137.676C242.392 137.121 243.267 136.697 244.29 136.402C245.312 136.107 246.396 135.96 247.54 135.96ZM247.098 147.816C247.912 147.816 248.632 147.634 249.256 147.27C249.897 146.889 250.348 146.351 250.608 145.658V144.046H247.254C245.382 144.046 244.446 144.661 244.446 145.892C244.446 146.481 244.68 146.949 245.148 147.296C245.616 147.643 246.266 147.816 247.098 147.816ZM270.775 136.116L264.275 151.118C263.668 152.626 262.931 153.683 262.065 154.29C261.198 154.914 260.149 155.226 258.919 155.226C258.225 155.226 257.541 155.113 256.865 154.888C256.189 154.663 255.634 154.351 255.201 153.952L256.501 151.56C256.813 151.855 257.177 152.089 257.593 152.262C258.026 152.435 258.459 152.522 258.893 152.522C259.465 152.522 259.933 152.375 260.297 152.08C260.678 151.785 261.025 151.291 261.337 150.598L261.571 150.052L255.513 136.116H258.893L263.261 146.386L267.655 136.116H270.775Z" fill="#B0B0B0"/>
<path d="M9.92438 187.336H11.4604V191.704C10.9057 192.163 10.2604 192.515 9.52437 192.76C8.78838 193.005 8.02038 193.128 7.22038 193.128C6.08971 193.128 5.07104 192.883 4.16438 192.392C3.25771 191.891 2.54304 191.208 2.02038 190.344C1.50838 189.469 1.25238 188.488 1.25238 187.4C1.25238 186.312 1.50838 185.331 2.02038 184.456C2.54304 183.581 3.25771 182.899 4.16438 182.408C5.08171 181.917 6.11104 181.672 7.25238 181.672C8.14838 181.672 8.95904 181.821 9.68438 182.12C10.4204 182.408 11.0444 182.835 11.5564 183.4L10.5644 184.392C9.66838 183.528 8.58571 183.096 7.31638 183.096C6.46304 183.096 5.69504 183.283 5.01238 183.656C4.34038 184.019 3.81238 184.531 3.42838 185.192C3.04438 185.843 2.85238 186.579 2.85238 187.4C2.85238 188.211 3.04438 188.947 3.42838 189.608C3.81238 190.259 4.34038 190.771 5.01238 191.144C5.69504 191.517 6.45771 191.704 7.30038 191.704C8.30304 191.704 9.17771 191.464 9.92438 190.984V187.336ZM21.9638 188.808C21.9638 188.925 21.9531 189.08 21.9318 189.272H15.0518C15.1478 190.019 15.4731 190.621 16.0278 191.08C16.5931 191.528 17.2918 191.752 18.1238 191.752C19.1371 191.752 19.9531 191.411 20.5718 190.728L21.4198 191.72C21.0358 192.168 20.5558 192.509 19.9798 192.744C19.4144 192.979 18.7798 193.096 18.0758 193.096C17.1798 193.096 16.3851 192.915 15.6918 192.552C14.9984 192.179 14.4598 191.661 14.0758 191C13.7024 190.339 13.5158 189.592 13.5158 188.76C13.5158 187.939 13.6971 187.197 14.0598 186.536C14.4331 185.875 14.9398 185.363 15.5798 185C16.2304 184.627 16.9611 184.44 17.7718 184.44C18.5824 184.44 19.3024 184.627 19.9318 185C20.5718 185.363 21.0678 185.875 21.4198 186.536C21.7824 187.197 21.9638 187.955 21.9638 188.808ZM17.7718 185.736C17.0358 185.736 16.4171 185.96 15.9158 186.408C15.4251 186.856 15.1371 187.443 15.0518 188.168H20.4918C20.4064 187.453 20.1131 186.872 19.6118 186.424C19.1211 185.965 18.5078 185.736 17.7718 185.736ZM28.8646 192.504C28.6406 192.696 28.3633 192.845 28.0326 192.952C27.702 193.048 27.3606 193.096 27.0086 193.096C26.1553 193.096 25.494 192.867 25.0246 192.408C24.5553 191.949 24.3206 191.293 24.3206 190.44V185.784H22.8806V184.52H24.3206V182.664H25.8566V184.52H28.2886V185.784H25.8566V190.376C25.8566 190.835 25.9686 191.187 26.1926 191.432C26.4273 191.677 26.758 191.8 27.1846 191.8C27.654 191.8 28.054 191.667 28.3846 191.4L28.8646 192.504ZM39.7865 192.504C39.5625 192.696 39.2852 192.845 38.9545 192.952C38.6238 193.048 38.2825 193.096 37.9305 193.096C37.0772 193.096 36.4158 192.867 35.9465 192.408C35.4772 191.949 35.2425 191.293 35.2425 190.44V185.784H33.8025V184.52H35.2425V182.664H36.7785V184.52H39.2105V185.784H36.7785V190.376C36.7785 190.835 36.8905 191.187 37.1145 191.432C37.3492 191.677 37.6798 191.8 38.1065 191.8C38.5758 191.8 38.9758 191.667 39.3065 191.4L39.7865 192.504ZM46.1715 184.44C47.2488 184.44 48.1022 184.755 48.7315 185.384C49.3715 186.003 49.6915 186.915 49.6915 188.12V193H48.1555V188.296C48.1555 187.475 47.9582 186.856 47.5635 186.44C47.1688 186.024 46.6035 185.816 45.8675 185.816C45.0355 185.816 44.3795 186.061 43.8995 186.552C43.4195 187.032 43.1795 187.725 43.1795 188.632V193H41.6435V181.128H43.1795V185.72C43.4995 185.315 43.9155 185 44.4275 184.776C44.9502 184.552 45.5315 184.44 46.1715 184.44ZM52.5341 184.52H54.0701V193H52.5341V184.52ZM53.3021 182.888C53.0035 182.888 52.7528 182.792 52.5501 182.6C52.3581 182.408 52.2621 182.173 52.2621 181.896C52.2621 181.619 52.3581 181.384 52.5501 181.192C52.7528 180.989 53.0035 180.888 53.3021 180.888C53.6008 180.888 53.8461 180.984 54.0381 181.176C54.2408 181.357 54.3421 181.587 54.3421 181.864C54.3421 182.152 54.2408 182.397 54.0381 182.6C53.8461 182.792 53.6008 182.888 53.3021 182.888ZM61.5309 184.44C62.6082 184.44 63.4615 184.755 64.0909 185.384C64.7309 186.003 65.0509 186.915 65.0509 188.12V193H63.5149V188.296C63.5149 187.475 63.3175 186.856 62.9229 186.44C62.5282 186.024 61.9629 185.816 61.2269 185.816C60.3949 185.816 59.7389 186.061 59.2589 186.552C58.7789 187.032 58.5389 187.725 58.5389 188.632V193H57.0029V184.52H58.4749V185.8C58.7842 185.363 59.2002 185.027 59.7229 184.792C60.2562 184.557 60.8589 184.44 61.5309 184.44ZM76.0524 184.52V191.848C76.0524 193.331 75.6844 194.424 74.9484 195.128C74.2124 195.843 73.1137 196.2 71.6524 196.2C70.8524 196.2 70.0897 196.088 69.3644 195.864C68.639 195.651 68.0524 195.341 67.6044 194.936L68.3404 193.752C68.735 194.093 69.2204 194.36 69.7964 194.552C70.383 194.755 70.9857 194.856 71.6044 194.856C72.5964 194.856 73.327 194.621 73.7964 194.152C74.2764 193.683 74.5164 192.968 74.5164 192.008V191.336C74.1537 191.773 73.7057 192.104 73.1724 192.328C72.6497 192.541 72.079 192.648 71.4604 192.648C70.6497 192.648 69.9137 192.477 69.2524 192.136C68.6017 191.784 68.0897 191.299 67.7164 190.68C67.343 190.051 67.1564 189.336 67.1564 188.536C67.1564 187.736 67.343 187.027 67.7164 186.408C68.0897 185.779 68.6017 185.293 69.2524 184.952C69.9137 184.611 70.6497 184.44 71.4604 184.44C72.1004 184.44 72.6924 184.557 73.2364 184.792C73.791 185.027 74.2444 185.373 74.5964 185.832V184.52H76.0524ZM71.6364 191.304C72.191 191.304 72.687 191.187 73.1244 190.952C73.5724 190.717 73.919 190.392 74.1644 189.976C74.4204 189.549 74.5484 189.069 74.5484 188.536C74.5484 187.715 74.2764 187.053 73.7324 186.552C73.1884 186.04 72.4897 185.784 71.6364 185.784C70.7724 185.784 70.0684 186.04 69.5244 186.552C68.9804 187.053 68.7084 187.715 68.7084 188.536C68.7084 189.069 68.831 189.549 69.0764 189.976C69.3324 190.392 69.679 190.717 70.1164 190.952C70.5644 191.187 71.071 191.304 71.6364 191.304ZM81.4193 193.096C80.7259 193.096 80.0593 193.005 79.4193 192.824C78.7793 192.632 78.2779 192.392 77.9153 192.104L78.5553 190.888C78.9286 191.155 79.3819 191.368 79.9153 191.528C80.4486 191.688 80.9873 191.768 81.5312 191.768C82.8753 191.768 83.5473 191.384 83.5473 190.616C83.5473 190.36 83.4566 190.157 83.2753 190.008C83.0939 189.859 82.8646 189.752 82.5873 189.688C82.3206 189.613 81.9366 189.533 81.4353 189.448C80.7526 189.341 80.1926 189.219 79.7553 189.08C79.3286 188.941 78.9606 188.707 78.6513 188.376C78.3419 188.045 78.1873 187.581 78.1873 186.984C78.1873 186.216 78.5073 185.603 79.1473 185.144C79.7873 184.675 80.6459 184.44 81.7233 184.44C82.2886 184.44 82.8539 184.509 83.4193 184.648C83.9846 184.787 84.4486 184.973 84.8113 185.208L84.1553 186.424C83.4619 185.976 82.6459 185.752 81.7073 185.752C81.0566 185.752 80.5606 185.859 80.2193 186.072C79.8779 186.285 79.7073 186.568 79.7073 186.92C79.7073 187.197 79.8033 187.416 79.9953 187.576C80.1873 187.736 80.4219 187.853 80.6993 187.928C80.9873 188.003 81.3873 188.088 81.8993 188.184C82.5819 188.301 83.1313 188.429 83.5473 188.568C83.9739 188.696 84.3366 188.92 84.6353 189.24C84.9339 189.56 85.0833 190.008 85.0833 190.584C85.0833 191.352 84.7526 191.965 84.0913 192.424C83.4406 192.872 82.5499 193.096 81.4193 193.096ZM99.2998 181.128V193H97.8278V191.656C97.4864 192.125 97.0544 192.483 96.5318 192.728C96.0091 192.973 95.4331 193.096 94.8038 193.096C93.9824 193.096 93.2464 192.915 92.5958 192.552C91.9451 192.189 91.4331 191.683 91.0598 191.032C90.6971 190.371 90.5158 189.613 90.5158 188.76C90.5158 187.907 90.6971 187.155 91.0598 186.504C91.4331 185.853 91.9451 185.347 92.5958 184.984C93.2464 184.621 93.9824 184.44 94.8038 184.44C95.4118 184.44 95.9718 184.557 96.4838 184.792C96.9958 185.016 97.4224 185.352 97.7638 185.8V181.128H99.2998ZM94.9318 191.752C95.4651 191.752 95.9504 191.629 96.3878 191.384C96.8251 191.128 97.1664 190.776 97.4118 190.328C97.6571 189.869 97.7798 189.347 97.7798 188.76C97.7798 188.173 97.6571 187.656 97.4118 187.208C97.1664 186.749 96.8251 186.397 96.3878 186.152C95.9504 185.907 95.4651 185.784 94.9318 185.784C94.3878 185.784 93.8971 185.907 93.4598 186.152C93.0331 186.397 92.6918 186.749 92.4358 187.208C92.1904 187.656 92.0678 188.173 92.0678 188.76C92.0678 189.347 92.1904 189.869 92.4358 190.328C92.6918 190.776 93.0331 191.128 93.4598 191.384C93.8971 191.629 94.3878 191.752 94.9318 191.752ZM105.838 193.096C104.995 193.096 104.238 192.909 103.566 192.536C102.894 192.163 102.366 191.651 101.982 191C101.609 190.339 101.422 189.592 101.422 188.76C101.422 187.928 101.609 187.187 101.982 186.536C102.366 185.875 102.894 185.363 103.566 185C104.238 184.627 104.995 184.44 105.838 184.44C106.681 184.44 107.433 184.627 108.094 185C108.766 185.363 109.289 185.875 109.662 186.536C110.046 187.187 110.238 187.928 110.238 188.76C110.238 189.592 110.046 190.339 109.662 191C109.289 191.651 108.766 192.163 108.094 192.536C107.433 192.909 106.681 193.096 105.838 193.096ZM105.838 191.752C106.382 191.752 106.867 191.629 107.294 191.384C107.731 191.128 108.073 190.776 108.318 190.328C108.563 189.869 108.686 189.347 108.686 188.76C108.686 188.173 108.563 187.656 108.318 187.208C108.073 186.749 107.731 186.397 107.294 186.152C106.867 185.907 106.382 185.784 105.838 185.784C105.294 185.784 104.803 185.907 104.366 186.152C103.939 186.397 103.598 186.749 103.342 187.208C103.097 187.656 102.974 188.173 102.974 188.76C102.974 189.347 103.097 189.869 103.342 190.328C103.598 190.776 103.939 191.128 104.366 191.384C104.803 191.629 105.294 191.752 105.838 191.752ZM116.89 184.44C117.968 184.44 118.821 184.755 119.45 185.384C120.09 186.003 120.41 186.915 120.41 188.12V193H118.874V188.296C118.874 187.475 118.677 186.856 118.282 186.44C117.888 186.024 117.322 185.816 116.586 185.816C115.754 185.816 115.098 186.061 114.618 186.552C114.138 187.032 113.898 187.725 113.898 188.632V193H112.362V184.52H113.834V185.8C114.144 185.363 114.56 185.027 115.082 184.792C115.616 184.557 116.218 184.44 116.89 184.44ZM130.964 188.808C130.964 188.925 130.953 189.08 130.932 189.272H124.052C124.148 190.019 124.473 190.621 125.028 191.08C125.593 191.528 126.292 191.752 127.124 191.752C128.137 191.752 128.953 191.411 129.572 190.728L130.42 191.72C130.036 192.168 129.556 192.509 128.98 192.744C128.414 192.979 127.78 193.096 127.076 193.096C126.18 193.096 125.385 192.915 124.692 192.552C123.998 192.179 123.46 191.661 123.076 191C122.702 190.339 122.516 189.592 122.516 188.76C122.516 187.939 122.697 187.197 123.06 186.536C123.433 185.875 123.94 185.363 124.58 185C125.23 184.627 125.961 184.44 126.772 184.44C127.582 184.44 128.302 184.627 128.932 185C129.572 185.363 130.068 185.875 130.42 186.536C130.782 187.197 130.964 187.955 130.964 188.808ZM126.772 185.736C126.036 185.736 125.417 185.96 124.916 186.408C124.425 186.856 124.137 187.443 124.052 188.168H129.492C129.406 187.453 129.113 186.872 128.612 186.424C128.121 185.965 127.508 185.736 126.772 185.736ZM150.226 184.52L147.058 193H145.586L143.138 186.568L140.658 193H139.186L136.034 184.52H137.49L139.954 191.272L142.514 184.52H143.81L146.322 191.304L148.85 184.52H150.226ZM151.784 184.52H153.32V193H151.784V184.52ZM152.552 182.888C152.253 182.888 152.003 182.792 151.8 182.6C151.608 182.408 151.512 182.173 151.512 181.896C151.512 181.619 151.608 181.384 151.8 181.192C152.003 180.989 152.253 180.888 152.552 180.888C152.851 180.888 153.096 180.984 153.288 181.176C153.491 181.357 153.592 181.587 153.592 181.864C153.592 182.152 153.491 182.397 153.288 182.6C153.096 182.792 152.851 182.888 152.552 182.888ZM161.021 192.504C160.797 192.696 160.52 192.845 160.189 192.952C159.858 193.048 159.517 193.096 159.165 193.096C158.312 193.096 157.65 192.867 157.181 192.408C156.712 191.949 156.477 191.293 156.477 190.44V185.784H155.037V184.52H156.477V182.664H158.013V184.52H160.445V185.784H158.013V190.376C158.013 190.835 158.125 191.187 158.349 191.432C158.584 191.677 158.914 191.8 159.341 191.8C159.81 191.8 160.21 191.667 160.541 191.4L161.021 192.504ZM167.406 184.44C168.483 184.44 169.337 184.755 169.966 185.384C170.606 186.003 170.926 186.915 170.926 188.12V193H169.39V188.296C169.39 187.475 169.193 186.856 168.798 186.44C168.403 186.024 167.838 185.816 167.102 185.816C166.27 185.816 165.614 186.061 165.134 186.552C164.654 187.032 164.414 187.725 164.414 188.632V193H162.878V181.128H164.414V185.72C164.734 185.315 165.15 185 165.662 184.776C166.185 184.552 166.766 184.44 167.406 184.44ZM188.673 193L188.657 184.84L184.609 191.64H183.873L179.825 184.888V193H178.289V181.8H179.601L184.273 189.672L188.881 181.8H190.193L190.209 193H188.673ZM200.851 184.52L196.739 193.848C196.376 194.712 195.949 195.32 195.459 195.672C194.979 196.024 194.397 196.2 193.715 196.2C193.299 196.2 192.893 196.131 192.499 195.992C192.115 195.864 191.795 195.672 191.539 195.416L192.195 194.264C192.632 194.68 193.139 194.888 193.715 194.888C194.088 194.888 194.397 194.787 194.643 194.584C194.899 194.392 195.128 194.056 195.331 193.576L195.603 192.984L191.859 184.52H193.459L196.419 191.304L199.347 184.52H200.851ZM206.805 181.8H211.525C212.709 181.8 213.76 182.035 214.677 182.504C215.594 182.973 216.304 183.635 216.805 184.488C217.317 185.331 217.573 186.301 217.573 187.4C217.573 188.499 217.317 189.475 216.805 190.328C216.304 191.171 215.594 191.827 214.677 192.296C213.76 192.765 212.709 193 211.525 193H206.805V181.8ZM211.429 191.608C212.336 191.608 213.13 191.432 213.813 191.08C214.506 190.728 215.04 190.237 215.413 189.608C215.786 188.968 215.973 188.232 215.973 187.4C215.973 186.568 215.786 185.837 215.413 185.208C215.04 184.568 214.506 184.072 213.813 183.72C213.13 183.368 212.336 183.192 211.429 183.192H208.405V191.608H211.429ZM222.888 184.44C224.061 184.44 224.957 184.728 225.576 185.304C226.205 185.88 226.52 186.739 226.52 187.88V193H225.064V191.88C224.808 192.275 224.44 192.579 223.96 192.792C223.49 192.995 222.93 193.096 222.28 193.096C221.33 193.096 220.568 192.867 219.992 192.408C219.426 191.949 219.144 191.347 219.144 190.6C219.144 189.853 219.416 189.256 219.96 188.808C220.504 188.349 221.368 188.12 222.552 188.12H224.984V187.816C224.984 187.155 224.792 186.648 224.408 186.296C224.024 185.944 223.458 185.768 222.712 185.768C222.21 185.768 221.72 185.853 221.24 186.024C220.76 186.184 220.354 186.403 220.024 186.68L219.384 185.528C219.821 185.176 220.344 184.909 220.952 184.728C221.56 184.536 222.205 184.44 222.888 184.44ZM222.536 191.912C223.122 191.912 223.629 191.784 224.056 191.528C224.482 191.261 224.792 190.888 224.984 190.408V189.224H222.616C221.314 189.224 220.664 189.661 220.664 190.536C220.664 190.963 220.829 191.299 221.16 191.544C221.49 191.789 221.949 191.912 222.536 191.912ZM236.71 184.52L232.598 193.848C232.235 194.712 231.809 195.32 231.318 195.672C230.838 196.024 230.257 196.2 229.574 196.2C229.158 196.2 228.753 196.131 228.358 195.992C227.974 195.864 227.654 195.672 227.398 195.416L228.054 194.264C228.491 194.68 228.998 194.888 229.574 194.888C229.947 194.888 230.257 194.787 230.502 194.584C230.758 194.392 230.987 194.056 231.19 193.576L231.462 192.984L227.718 184.52H229.318L232.278 191.304L235.206 184.52H236.71ZM237.996 190.904C238.295 190.904 238.54 191.011 238.732 191.224C238.935 191.427 239.036 191.683 239.036 191.992C239.036 192.152 239.015 192.307 238.972 192.456C238.94 192.605 238.871 192.835 238.764 193.144L238.012 195.368H237.004L237.596 192.984C237.394 192.909 237.228 192.787 237.1 192.616C236.983 192.435 236.924 192.227 236.924 191.992C236.924 191.672 237.026 191.411 237.228 191.208C237.431 191.005 237.687 190.904 237.996 190.904ZM248.622 184.44C249.795 184.44 250.691 184.728 251.31 185.304C251.939 185.88 252.254 186.739 252.254 187.88V193H250.798V191.88C250.542 192.275 250.174 192.579 249.694 192.792C249.225 192.995 248.665 193.096 248.014 193.096C247.065 193.096 246.302 192.867 245.726 192.408C245.161 191.949 244.878 191.347 244.878 190.6C244.878 189.853 245.15 189.256 245.694 188.808C246.238 188.349 247.102 188.12 248.286 188.12H250.718V187.816C250.718 187.155 250.526 186.648 250.142 186.296C249.758 185.944 249.193 185.768 248.446 185.768C247.945 185.768 247.454 185.853 246.974 186.024C246.494 186.184 246.089 186.403 245.758 186.68L245.118 185.528C245.555 185.176 246.078 184.909 246.686 184.728C247.294 184.536 247.939 184.44 248.622 184.44ZM248.27 191.912C248.857 191.912 249.363 191.784 249.79 191.528C250.217 191.261 250.526 190.888 250.718 190.408V189.224H248.35C247.049 189.224 246.398 189.661 246.398 190.536C246.398 190.963 246.563 191.299 246.894 191.544C247.225 191.789 247.683 191.912 248.27 191.912ZM259.394 181.128H260.93V193H259.394V181.128ZM263.862 184.52H265.398V193H263.862V184.52ZM264.63 182.888C264.332 182.888 264.081 182.792 263.878 182.6C263.686 182.408 263.59 182.173 263.59 181.896C263.59 181.619 263.686 181.384 263.878 181.192C264.081 180.989 264.332 180.888 264.63 180.888C264.929 180.888 265.174 180.984 265.366 181.176C265.569 181.357 265.67 181.587 265.67 181.864C265.67 182.152 265.569 182.397 265.366 182.6C265.174 182.792 264.929 182.888 264.63 182.888ZM270.763 193.096C270.07 193.096 269.403 193.005 268.763 192.824C268.123 192.632 267.622 192.392 267.259 192.104L267.899 190.888C268.272 191.155 268.726 191.368 269.259 191.528C269.792 191.688 270.331 191.768 270.875 191.768C272.219 191.768 272.891 191.384 272.891 190.616C272.891 190.36 272.8 190.157 272.619 190.008C272.438 189.859 272.208 189.752 271.931 189.688C271.664 189.613 271.28 189.533 270.779 189.448C270.096 189.341 269.536 189.219 269.099 189.08C268.672 188.941 268.304 188.707 267.995 188.376C267.686 188.045 267.531 187.581 267.531 186.984C267.531 186.216 267.851 185.603 268.491 185.144C269.131 184.675 269.99 184.44 271.067 184.44C271.632 184.44 272.198 184.509 272.763 184.648C273.328 184.787 273.792 184.973 274.155 185.208L273.499 186.424C272.806 185.976 271.99 185.752 271.051 185.752C270.4 185.752 269.904 185.859 269.563 186.072C269.222 186.285 269.051 186.568 269.051 186.92C269.051 187.197 269.147 187.416 269.339 187.576C269.531 187.736 269.766 187.853 270.043 187.928C270.331 188.003 270.731 188.088 271.243 188.184C271.926 188.301 272.475 188.429 272.891 188.568C273.318 188.696 273.68 188.92 273.979 189.24C274.278 189.56 274.427 190.008 274.427 190.584C274.427 191.352 274.096 191.965 273.435 192.424C272.784 192.872 271.894 193.096 270.763 193.096ZM281.115 192.504C280.891 192.696 280.613 192.845 280.283 192.952C279.952 193.048 279.611 193.096 279.259 193.096C278.405 193.096 277.744 192.867 277.275 192.408C276.805 191.949 276.571 191.293 276.571 190.44V185.784H275.131V184.52H276.571V182.664H278.107V184.52H280.539V185.784H278.107V190.376C278.107 190.835 278.219 191.187 278.443 191.432C278.677 191.677 279.008 191.8 279.435 191.8C279.904 191.8 280.304 191.667 280.635 191.4L281.115 192.504ZM292.037 192.504C291.813 192.696 291.535 192.845 291.205 192.952C290.874 193.048 290.533 193.096 290.181 193.096C289.327 193.096 288.666 192.867 288.197 192.408C287.727 191.949 287.493 191.293 287.493 190.44V185.784H286.053V184.52H287.493V182.664H289.029V184.52H291.461V185.784H289.029V190.376C289.029 190.835 289.141 191.187 289.365 191.432C289.599 191.677 289.93 191.8 290.357 191.8C290.826 191.8 291.226 191.667 291.557 191.4L292.037 192.504ZM298.422 184.44C299.499 184.44 300.352 184.755 300.982 185.384C301.622 186.003 301.942 186.915 301.942 188.12V193H300.406V188.296C300.406 187.475 300.208 186.856 299.814 186.44C299.419 186.024 298.854 185.816 298.118 185.816C297.286 185.816 296.63 186.061 296.15 186.552C295.67 187.032 295.43 187.725 295.43 188.632V193H293.894V181.128H295.43V185.72C295.75 185.315 296.166 185 296.678 184.776C297.2 184.552 297.782 184.44 298.422 184.44ZM307.872 184.44C309.045 184.44 309.941 184.728 310.56 185.304C311.189 185.88 311.504 186.739 311.504 187.88V193H310.048V191.88C309.792 192.275 309.424 192.579 308.944 192.792C308.475 192.995 307.915 193.096 307.264 193.096C306.315 193.096 305.552 192.867 304.976 192.408C304.411 191.949 304.128 191.347 304.128 190.6C304.128 189.853 304.4 189.256 304.944 188.808C305.488 188.349 306.352 188.12 307.536 188.12H309.968V187.816C309.968 187.155 309.776 186.648 309.392 186.296C309.008 185.944 308.443 185.768 307.696 185.768C307.195 185.768 306.704 185.853 306.224 186.024C305.744 186.184 305.339 186.403 305.008 186.68L304.368 185.528C304.805 185.176 305.328 184.909 305.936 184.728C306.544 184.536 307.189 184.44 307.872 184.44ZM307.52 191.912C308.107 191.912 308.613 191.784 309.04 191.528C309.467 191.261 309.776 190.888 309.968 190.408V189.224H307.6C306.299 189.224 305.648 189.661 305.648 190.536C305.648 190.963 305.813 191.299 306.144 191.544C306.475 191.789 306.933 191.912 307.52 191.912ZM319.115 192.504C318.891 192.696 318.613 192.845 318.283 192.952C317.952 193.048 317.611 193.096 317.259 193.096C316.405 193.096 315.744 192.867 315.275 192.408C314.805 191.949 314.571 191.293 314.571 190.44V185.784H313.131V184.52H314.571V182.664H316.107V184.52H318.539V185.784H316.107V190.376C316.107 190.835 316.219 191.187 316.443 191.432C316.677 191.677 317.008 191.8 317.435 191.8C317.904 191.8 318.304 191.667 318.635 191.4L319.115 192.504ZM82.5061 205.944C82.7728 205.453 83.1675 205.08 83.6901 204.824C84.2128 204.568 84.8475 204.44 85.5941 204.44V205.928C85.5088 205.917 85.3915 205.912 85.2421 205.912C84.4101 205.912 83.7541 206.163 83.2741 206.664C82.8048 207.155 82.5701 207.859 82.5701 208.776V213H81.0341V204.52H82.5061V205.944ZM95.0731 208.808C95.0731 208.925 95.0625 209.08 95.0411 209.272H88.1611C88.2571 210.019 88.5825 210.621 89.1371 211.08C89.7025 211.528 90.4011 211.752 91.2331 211.752C92.2465 211.752 93.0625 211.411 93.6811 210.728L94.5291 211.72C94.1451 212.168 93.6651 212.509 93.0891 212.744C92.5238 212.979 91.8891 213.096 91.1851 213.096C90.2891 213.096 89.4945 212.915 88.8011 212.552C88.1078 212.179 87.5691 211.661 87.1851 211C86.8118 210.339 86.6251 209.592 86.6251 208.76C86.6251 207.939 86.8065 207.197 87.1691 206.536C87.5425 205.875 88.0491 205.363 88.6891 205C89.3398 204.627 90.0705 204.44 90.8811 204.44C91.6918 204.44 92.4118 204.627 93.0411 205C93.6811 205.363 94.1771 205.875 94.5291 206.536C94.8918 207.197 95.0731 207.955 95.0731 208.808ZM90.8811 205.736C90.1451 205.736 89.5265 205.96 89.0251 206.408C88.5345 206.856 88.2465 207.443 88.1611 208.168H93.6011C93.5158 207.453 93.2225 206.872 92.7211 206.424C92.2305 205.965 91.6171 205.736 90.8811 205.736ZM100.31 202.296C99.3927 202.296 98.934 202.792 98.934 203.784V204.52H101.398V205.784H98.966V213H97.43V205.784H95.99V204.52H97.43V203.768C97.43 202.925 97.6753 202.259 98.166 201.768C98.6567 201.277 99.3447 201.032 100.23 201.032C100.571 201.032 100.891 201.075 101.19 201.16C101.489 201.245 101.745 201.368 101.958 201.528L101.494 202.696C101.142 202.429 100.747 202.296 100.31 202.296ZM105.6 205.944C105.867 205.453 106.261 205.08 106.784 204.824C107.307 204.568 107.941 204.44 108.688 204.44V205.928C108.603 205.917 108.485 205.912 108.336 205.912C107.504 205.912 106.848 206.163 106.368 206.664C105.899 207.155 105.664 207.859 105.664 208.776V213H104.128V204.52H105.6V205.944ZM118.167 208.808C118.167 208.925 118.156 209.08 118.135 209.272H111.255C111.351 210.019 111.676 210.621 112.231 211.08C112.796 211.528 113.495 211.752 114.327 211.752C115.34 211.752 116.156 211.411 116.775 210.728L117.623 211.72C117.239 212.168 116.759 212.509 116.183 212.744C115.618 212.979 114.983 213.096 114.279 213.096C113.383 213.096 112.588 212.915 111.895 212.552C111.202 212.179 110.663 211.661 110.279 211C109.906 210.339 109.719 209.592 109.719 208.76C109.719 207.939 109.9 207.197 110.263 206.536C110.636 205.875 111.143 205.363 111.783 205C112.434 204.627 113.164 204.44 113.975 204.44C114.786 204.44 115.506 204.627 116.135 205C116.775 205.363 117.271 205.875 117.623 206.536C117.986 207.197 118.167 207.955 118.167 208.808ZM113.975 205.736C113.239 205.736 112.62 205.96 112.119 206.408C111.628 206.856 111.34 207.443 111.255 208.168H116.695C116.61 207.453 116.316 206.872 115.815 206.424C115.324 205.965 114.711 205.736 113.975 205.736ZM122.732 213.096C122.038 213.096 121.372 213.005 120.732 212.824C120.092 212.632 119.59 212.392 119.228 212.104L119.868 210.888C120.241 211.155 120.694 211.368 121.228 211.528C121.761 211.688 122.3 211.768 122.844 211.768C124.188 211.768 124.86 211.384 124.86 210.616C124.86 210.36 124.769 210.157 124.588 210.008C124.406 209.859 124.177 209.752 123.9 209.688C123.633 209.613 123.249 209.533 122.748 209.448C122.065 209.341 121.505 209.219 121.068 209.08C120.641 208.941 120.273 208.707 119.964 208.376C119.654 208.045 119.5 207.581 119.5 206.984C119.5 206.216 119.82 205.603 120.46 205.144C121.1 204.675 121.958 204.44 123.036 204.44C123.601 204.44 124.166 204.509 124.732 204.648C125.297 204.787 125.761 204.973 126.124 205.208L125.468 206.424C124.774 205.976 123.958 205.752 123.02 205.752C122.369 205.752 121.873 205.859 121.532 206.072C121.19 206.285 121.02 206.568 121.02 206.92C121.02 207.197 121.116 207.416 121.308 207.576C121.5 207.736 121.734 207.853 122.012 207.928C122.3 208.003 122.7 208.088 123.212 208.184C123.894 208.301 124.444 208.429 124.86 208.568C125.286 208.696 125.649 208.92 125.948 209.24C126.246 209.56 126.396 210.008 126.396 210.584C126.396 211.352 126.065 211.965 125.404 212.424C124.753 212.872 123.862 213.096 122.732 213.096ZM132.843 204.44C133.921 204.44 134.774 204.755 135.403 205.384C136.043 206.003 136.363 206.915 136.363 208.12V213H134.827V208.296C134.827 207.475 134.63 206.856 134.235 206.44C133.841 206.024 133.275 205.816 132.539 205.816C131.707 205.816 131.051 206.061 130.571 206.552C130.091 207.032 129.851 207.725 129.851 208.632V213H128.315V201.128H129.851V205.72C130.171 205.315 130.587 205 131.099 204.776C131.622 204.552 132.203 204.44 132.843 204.44ZM146.917 208.808C146.917 208.925 146.906 209.08 146.885 209.272H140.005C140.101 210.019 140.426 210.621 140.981 211.08C141.546 211.528 142.245 211.752 143.077 211.752C144.09 211.752 144.906 211.411 145.525 210.728L146.373 211.72C145.989 212.168 145.509 212.509 144.933 212.744C144.368 212.979 143.733 213.096 143.029 213.096C142.133 213.096 141.338 212.915 140.645 212.552C139.952 212.179 139.413 211.661 139.029 211C138.656 210.339 138.469 209.592 138.469 208.76C138.469 207.939 138.65 207.197 139.013 206.536C139.386 205.875 139.893 205.363 140.533 205C141.184 204.627 141.914 204.44 142.725 204.44C143.536 204.44 144.256 204.627 144.885 205C145.525 205.363 146.021 205.875 146.373 206.536C146.736 207.197 146.917 207.955 146.917 208.808ZM142.725 205.736C141.989 205.736 141.37 205.96 140.869 206.408C140.378 206.856 140.09 207.443 140.005 208.168H145.445C145.36 207.453 145.066 206.872 144.565 206.424C144.074 205.965 143.461 205.736 142.725 205.736ZM151.482 213.096C150.788 213.096 150.122 213.005 149.482 212.824C148.842 212.632 148.34 212.392 147.978 212.104L148.618 210.888C148.991 211.155 149.444 211.368 149.978 211.528C150.511 211.688 151.05 211.768 151.594 211.768C152.938 211.768 153.61 211.384 153.61 210.616C153.61 210.36 153.519 210.157 153.338 210.008C153.156 209.859 152.927 209.752 152.65 209.688C152.383 209.613 151.999 209.533 151.498 209.448C150.815 209.341 150.255 209.219 149.818 209.08C149.391 208.941 149.023 208.707 148.714 208.376C148.404 208.045 148.25 207.581 148.25 206.984C148.25 206.216 148.57 205.603 149.21 205.144C149.85 204.675 150.708 204.44 151.786 204.44C152.351 204.44 152.916 204.509 153.482 204.648C154.047 204.787 154.511 204.973 154.874 205.208L154.218 206.424C153.524 205.976 152.708 205.752 151.77 205.752C151.119 205.752 150.623 205.859 150.282 206.072C149.94 206.285 149.77 206.568 149.77 206.92C149.77 207.197 149.866 207.416 150.058 207.576C150.25 207.736 150.484 207.853 150.762 207.928C151.05 208.003 151.45 208.088 151.962 208.184C152.644 208.301 153.194 208.429 153.61 208.568C154.036 208.696 154.399 208.92 154.698 209.24C154.996 209.56 155.146 210.008 155.146 210.584C155.146 211.352 154.815 211.965 154.154 212.424C153.503 212.872 152.612 213.096 151.482 213.096ZM169.026 208.808C169.026 208.925 169.016 209.08 168.994 209.272H162.114C162.21 210.019 162.536 210.621 163.09 211.08C163.656 211.528 164.354 211.752 165.186 211.752C166.2 211.752 167.016 211.411 167.634 210.728L168.482 211.72C168.098 212.168 167.618 212.509 167.042 212.744C166.477 212.979 165.842 213.096 165.138 213.096C164.242 213.096 163.448 212.915 162.754 212.552C162.061 212.179 161.522 211.661 161.138 211C160.765 210.339 160.578 209.592 160.578 208.76C160.578 207.939 160.76 207.197 161.122 206.536C161.496 205.875 162.002 205.363 162.642 205C163.293 204.627 164.024 204.44 164.834 204.44C165.645 204.44 166.365 204.627 166.994 205C167.634 205.363 168.13 205.875 168.482 206.536C168.845 207.197 169.026 207.955 169.026 208.808ZM164.834 205.736C164.098 205.736 163.48 205.96 162.978 206.408C162.488 206.856 162.2 207.443 162.114 208.168H167.554C167.469 207.453 167.176 206.872 166.674 206.424C166.184 205.965 165.57 205.736 164.834 205.736ZM178.507 204.52L174.795 213H173.227L169.515 204.52H171.115L174.027 211.32L177.003 204.52H178.507ZM187.37 208.808C187.37 208.925 187.359 209.08 187.338 209.272H180.458C180.554 210.019 180.879 210.621 181.434 211.08C181.999 211.528 182.698 211.752 183.53 211.752C184.543 211.752 185.359 211.411 185.978 210.728L186.826 211.72C186.442 212.168 185.962 212.509 185.386 212.744C184.821 212.979 184.186 213.096 183.482 213.096C182.586 213.096 181.791 212.915 181.098 212.552C180.405 212.179 179.866 211.661 179.482 211C179.109 210.339 178.922 209.592 178.922 208.76C178.922 207.939 179.103 207.197 179.466 206.536C179.839 205.875 180.346 205.363 180.986 205C181.637 204.627 182.367 204.44 183.178 204.44C183.989 204.44 184.709 204.627 185.338 205C185.978 205.363 186.474 205.875 186.826 206.536C187.189 207.197 187.37 207.955 187.37 208.808ZM183.178 205.736C182.442 205.736 181.823 205.96 181.322 206.408C180.831 206.856 180.543 207.443 180.458 208.168H185.898C185.813 207.453 185.519 206.872 185.018 206.424C184.527 205.965 183.914 205.736 183.178 205.736ZM190.975 205.944C191.242 205.453 191.636 205.08 192.159 204.824C192.682 204.568 193.316 204.44 194.063 204.44V205.928C193.978 205.917 193.86 205.912 193.711 205.912C192.879 205.912 192.223 206.163 191.743 206.664C191.274 207.155 191.039 207.859 191.039 208.776V213H189.503V204.52H190.975V205.944ZM203.804 204.52L199.692 213.848C199.329 214.712 198.902 215.32 198.412 215.672C197.932 216.024 197.35 216.2 196.668 216.2C196.252 216.2 195.846 216.131 195.452 215.992C195.068 215.864 194.748 215.672 194.492 215.416L195.148 214.264C195.585 214.68 196.092 214.888 196.668 214.888C197.041 214.888 197.35 214.787 197.596 214.584C197.852 214.392 198.081 214.056 198.284 213.576L198.556 212.984L194.812 204.52H196.412L199.372 211.304L202.3 204.52H203.804ZM217.534 201.128V213H216.062V211.656C215.721 212.125 215.289 212.483 214.766 212.728C214.243 212.973 213.667 213.096 213.038 213.096C212.217 213.096 211.481 212.915 210.83 212.552C210.179 212.189 209.667 211.683 209.294 211.032C208.931 210.371 208.75 209.613 208.75 208.76C208.75 207.907 208.931 207.155 209.294 206.504C209.667 205.853 210.179 205.347 210.83 204.984C211.481 204.621 212.217 204.44 213.038 204.44C213.646 204.44 214.206 204.557 214.718 204.792C215.23 205.016 215.657 205.352 215.998 205.8V201.128H217.534ZM213.166 211.752C213.699 211.752 214.185 211.629 214.622 211.384C215.059 211.128 215.401 210.776 215.646 210.328C215.891 209.869 216.014 209.347 216.014 208.76C216.014 208.173 215.891 207.656 215.646 207.208C215.401 206.749 215.059 206.397 214.622 206.152C214.185 205.907 213.699 205.784 213.166 205.784C212.622 205.784 212.131 205.907 211.694 206.152C211.267 206.397 210.926 206.749 210.67 207.208C210.425 207.656 210.302 208.173 210.302 208.76C210.302 209.347 210.425 209.869 210.67 210.328C210.926 210.776 211.267 211.128 211.694 211.384C212.131 211.629 212.622 211.752 213.166 211.752ZM223.528 204.44C224.702 204.44 225.598 204.728 226.216 205.304C226.846 205.88 227.16 206.739 227.16 207.88V213H225.704V211.88C225.448 212.275 225.08 212.579 224.6 212.792C224.131 212.995 223.571 213.096 222.92 213.096C221.971 213.096 221.208 212.867 220.632 212.408C220.067 211.949 219.784 211.347 219.784 210.6C219.784 209.853 220.056 209.256 220.6 208.808C221.144 208.349 222.008 208.12 223.192 208.12H225.624V207.816C225.624 207.155 225.432 206.648 225.048 206.296C224.664 205.944 224.099 205.768 223.352 205.768C222.851 205.768 222.36 205.853 221.88 206.024C221.4 206.184 220.995 206.403 220.664 206.68L220.024 205.528C220.462 205.176 220.984 204.909 221.592 204.728C222.2 204.536 222.846 204.44 223.528 204.44ZM223.176 211.912C223.763 211.912 224.27 211.784 224.696 211.528C225.123 211.261 225.432 210.888 225.624 210.408V209.224H223.256C221.955 209.224 221.304 209.661 221.304 210.536C221.304 210.963 221.47 211.299 221.8 211.544C222.131 211.789 222.59 211.912 223.176 211.912ZM237.351 204.52L233.239 213.848C232.876 214.712 232.449 215.32 231.959 215.672C231.479 216.024 230.897 216.2 230.215 216.2C229.799 216.2 229.393 216.131 228.999 215.992C228.615 215.864 228.295 215.672 228.039 215.416L228.695 214.264C229.132 214.68 229.639 214.888 230.215 214.888C230.588 214.888 230.897 214.787 231.143 214.584C231.399 214.392 231.628 214.056 231.831 213.576L232.103 212.984L228.359 204.52H229.959L232.919 211.304L235.847 204.52H237.351ZM238.621 213.096C238.322 213.096 238.066 212.995 237.853 212.792C237.64 212.579 237.533 212.312 237.533 211.992C237.533 211.683 237.64 211.427 237.853 211.224C238.066 211.011 238.322 210.904 238.621 210.904C238.92 210.904 239.17 211.005 239.373 211.208C239.576 211.411 239.677 211.672 239.677 211.992C239.677 212.312 239.57 212.579 239.357 212.792C239.154 212.995 238.909 213.096 238.621 213.096Z" fill="#8D8D8D"/>
</svg>
